<?xml version="1.0" encoding="utf-8"?>
<!-- Generator: Adobe Illustrator 24.3.0, SVG Export Plug-In . SVG Version: 6.00 Build 0)  -->
<svg version="1.1" id="Capa_1" xmlns="http://www.w3.org/2000/svg" xmlns:xlink="http://www.w3.org/1999/xlink" x="0px" y="0px"
	 viewBox="0 0 500 500" style="enable-background:new 0 0 500 500;" xml:space="preserve">
<style type="text/css">
	.st0{fill:none;stroke:#2E353A;stroke-width:3;stroke-linecap:round;stroke-linejoin:round;}
	.st1{fill:none;stroke:#2E353A;stroke-width:2;stroke-linecap:round;stroke-linejoin:round;}
	.st2{fill:#E80112;stroke:#2E353A;stroke-width:2;stroke-linecap:round;stroke-linejoin:round;}
	.st3{fill:#FFFFFF;stroke:#2E353A;stroke-width:2;stroke-linecap:round;stroke-linejoin:round;}
	.st4{fill:#2E353A;stroke:#2E353A;stroke-linecap:round;stroke-linejoin:round;}
	.st5{fill:none;stroke:#2E353A;stroke-linecap:round;stroke-linejoin:round;}
	.st6{fill:#0C69C8;stroke:#2E353A;stroke-linecap:round;stroke-linejoin:round;}
	.st7{fill:#040408;}
	.st8{fill:#FDFDFD;}
	.st9{fill:#E80112;}
	.st10{fill:#2E2320;}
	.st11{fill:#F4F2F3;}
	.st12{fill:#F3F2F2;}
	.st13{fill:#EFD7E6;}
	.st14{fill:#016CA4;}
</style>
<g id="freepik--Bulb--inject-124">
	<line class="st0" x1="256.5" y1="178.7" x2="256.5" y2="269.8"/>
	<line class="st0" x1="267.3" y1="181.2" x2="267.3" y2="269.8"/>
	<line class="st0" x1="279.2" y1="229.7" x2="279.2" y2="315.6"/>
	<line class="st0" x1="291.7" y1="181.2" x2="291.7" y2="315.6"/>
	<line class="st0" x1="304.3" y1="181.2" x2="304.3" y2="272.3"/>
	<line class="st0" x1="247.1" y1="190.9" x2="304.7" y2="190.9"/>
	<line class="st0" x1="247.1" y1="211.2" x2="309.5" y2="211.2"/>
	<line class="st0" x1="246" y1="229.7" x2="315.5" y2="229.7"/>
	<line class="st0" x1="245" y1="250.3" x2="315.5" y2="250.3"/>
	<line class="st0" x1="258.2" y1="272.6" x2="311.6" y2="272.6"/>
	<line class="st0" x1="272.2" y1="294.3" x2="307.1" y2="294.3"/>
	<line class="st1" x1="180.3" y1="187.4" x2="192.6" y2="197"/>
	<line class="st1" x1="204.9" y1="177.2" x2="209.2" y2="183.6"/>
	<line class="st1" x1="226.9" y1="161.7" x2="230.7" y2="173.5"/>
	<path class="st2" d="M297.2,313.1h-20.3v-48.3h-27.6v-85.6c-37.4,0.4-67.4,31-67.1,68.4c0.1,10.8,2.8,21.4,7.9,31
		c2.2,5.1,7.4,17.7,12.6,34c4.8,15,7.3,30.1,7.3,32.4c0,0.2,0,0.5,0,0.7c-0.1,2.8,2.1,5.1,4.9,5.2c0.1,0,0.1,0,0.2,0H285
		c2.8,0,5.1-2.3,5.1-5.1c0-0.1,0-0.1,0-0.2c0-0.2,0-0.5,0-0.7C290,342.8,292.5,328,297.2,313.1z"/>
	<path class="st1" d="M226.4,190.2c2-0.9,4-1.7,6-2.3"/>
	<path class="st1" d="M203.8,207.3c0,0,5.5-8.8,17.7-14.7"/>
	<path class="st1" d="M205.2,304.8c2.5,8.2,5.8,19.6,7,25.9c2,10.7,0.7,16.3,4.9,17.2"/>
	<path class="st1" d="M202.2,295c0,0,0.7,2.2,1.8,5.6"/>
	<path class="st1" d="M245.7,350.4v-64.8c0,0,2.7-16.9-6.1-16.9s-8.1,8.8,2,18.3c10.2,9.5,25.7,0.7,27.8-6.8s-3.4-10.8-6.8-4.7
		c-3.4,6.1,0,75.2,0,75.2"/>
	<rect x="213.7" y="350.6" class="st3" width="73.1" height="17"/>
	<rect x="213.7" y="371.6" class="st3" width="73.1" height="17"/>
	<rect x="213.7" y="367.6" class="st4" width="73.1" height="4"/>
	<rect x="213.7" y="392.6" class="st3" width="73.1" height="17"/>
	<line class="st5" x1="279.1" y1="365.3" x2="284.6" y2="365.3"/>
	<line class="st5" x1="216.5" y1="365.3" x2="276.5" y2="365.3"/>
	<line class="st5" x1="265" y1="386.6" x2="282.5" y2="386.6"/>
	<line class="st5" x1="227.4" y1="386.6" x2="263" y2="386.6"/>
	<line class="st5" x1="221.6" y1="386.6" x2="224.6" y2="386.6"/>
	<rect x="213.7" y="388.6" class="st4" width="73.1" height="4"/>
	<rect x="223.2" y="396.3" class="st6" width="25" height="13"/>
	<rect x="255.7" y="396.3" class="st6" width="25" height="13"/>
</g>
<g id="freepik--Ground--inject-124">
	<line class="st5" x1="382.3" y1="409.6" x2="388.2" y2="409.6"/>
	<line class="st5" x1="113.2" y1="409.6" x2="376.5" y2="409.6"/>
	<line class="st5" x1="104" y1="409.6" x2="108.6" y2="409.6"/>
</g>
<g>
	<path class="st7" d="M365.4,282.6c0,10.7-8.4,19.1-19.2,19.1c-10.7,0-19.1-8.4-19.1-19.1c0-10.7,8.4-19.1,19.2-19.1
		C357,263.5,365.4,271.9,365.4,282.6z M344.8,272.3c0.9-0.1,1.9-0.2,2.8,0c2.3,0.3,4,1.5,4.8,3.6c0.3,0.8,0.8,1.1,1.5,1.3
		c0.4,0.1,0.9,0.1,1.3,0.2c1.9,0.5,3.9,1,5.7,1.9c1.2,0.7,2.5,1.3,3.8,2c-0.3-8.7-8-18.2-20.3-17c-10.6,1-16.4,10.2-16.4,17
		c2.6-1.4,5.3-2.8,8.2-3.6c1-0.2,2-0.4,3-0.6c0.4-0.1,0.7-0.2,0.8-0.7C340.7,274,342.3,272.7,344.8,272.3z M344.8,300.9
		c6.3,0.1,10.6-1.6,14.2-4.9c3-2.8,4.8-6.3,5.6-10.4c0.2-0.9,0-1.4-0.9-1.8c-0.7-0.3-1.5-0.7-2.2-1.1c-2.6-1.5-5.4-2.2-8.4-2.8
		c-0.5-0.1-0.6,0.3-0.7,0.6c-1,2.9-3.2,4.5-6.1,4.5c-3.1-0.1-5.2-1.2-6.2-4.5c-0.2-0.5-0.3-0.6-0.9-0.5c-3.7,0.6-7,2-10.3,3.8
		c-0.9,0.5-1.1,1.1-0.9,2.1C329.7,294.7,337.1,300.9,344.8,300.9z M351.2,278.2c0-2.8-2.1-5-5-5c-2.8,0-5,2.2-5,4.9
		c0,2.7,2.2,4.9,4.9,4.9C348.9,283.2,351.2,281,351.2,278.2z"/>
	<path class="st8" d="M344.8,300.9c-7.7,0-15.1-6.1-16.8-15.1c-0.2-0.9,0-1.5,0.9-2.1c3.2-1.8,6.6-3.2,10.3-3.8
		c0.5-0.1,0.7,0,0.9,0.5c1.1,3.3,3.2,4.4,6.2,4.5c2.9,0.1,5.1-1.6,6.1-4.5c0.1-0.3,0.1-0.7,0.7-0.6c2.9,0.6,5.8,1.3,8.4,2.8
		c0.7,0.4,1.4,0.8,2.2,1.1c0.9,0.4,1,1,0.9,1.8c-0.7,4.1-2.5,7.5-5.6,10.4C355.4,299.3,351.2,300.9,344.8,300.9z"/>
	<path class="st9" d="M344.8,272.3c-2.4,0.3-4.1,1.7-4.8,4c-0.1,0.4-0.5,0.6-0.8,0.7c-1,0.2-2,0.4-3,0.6c-2.9,0.7-5.6,2.1-8.2,3.6
		c0-6.8,5.8-16,16.4-17c12.3-1.1,20,8.3,20.3,17c-1.3-0.7-2.6-1.3-3.8-2c-1.8-1-3.7-1.5-5.7-1.9c-0.4-0.1-0.9-0.1-1.3-0.2
		c-0.7-0.2-1.2-0.4-1.5-1.3c-0.8-2.1-2.5-3.3-4.8-3.6C347.1,271.8,345.5,271.8,344.8,272.3z M359.2,272.3c0-1.1-0.8-2-1.9-2
		c-1.1,0-2,0.9-2,2c0,1.1,0.9,2,2,2C358.3,274.3,359.2,273.4,359.2,272.3z M360.2,276.2c0.6-0.1,1-0.4,1-1c0-0.6-0.4-1-1-1
		c-0.6,0-1,0.4-1,1C359.2,275.9,359.6,276.2,360.2,276.2z"/>
	<path class="st8" d="M351.2,278.2c0,2.7-2.3,5-5,4.9c-2.7-0.1-4.9-2.2-4.9-4.9c0-2.8,2.2-4.9,5-4.9
		C349.1,273.3,351.2,275.4,351.2,278.2z M343.3,279.6c0.3,1.5,1.5,2.2,3.4,2.1c1.4-0.1,2.4-1,2.5-2.1
		C347,281.6,345.6,281.6,343.3,279.6z"/>
	<path class="st8" d="M344.8,272.3c0.7-0.5,2.3-0.5,2.8,0C346.7,272.2,345.7,272.2,344.8,272.3z"/>
	<path class="st8" d="M359.2,272.3c0,1.1-0.9,2-2,2c-1.1,0-2-0.9-2-2c0-1.1,0.9-2.1,2-2C358.3,270.3,359.2,271.2,359.2,272.3z"/>
	<path class="st8" d="M360.2,276.2c-0.6-0.1-1-0.4-1-1c0-0.6,0.4-1,1-1c0.6,0,1,0.4,1,1C361.2,275.8,360.8,276.2,360.2,276.2z"/>
	<path class="st7" d="M343.3,279.6c2.3,2,3.7,2,5.9,0c0,1.1-1.1,2.1-2.5,2.1C344.8,281.8,343.6,281.1,343.3,279.6z"/>
</g>
<g>
	<path class="st7" d="M159.7,156.4c0,15.9-12.5,28.3-28.5,28.3c-15.9,0-28.4-12.5-28.4-28.4c0-15.9,12.5-28.3,28.5-28.3
		C147.3,128,159.7,140.5,159.7,156.4z M129.1,141.2c1.4-0.2,2.8-0.2,4.2,0c3.4,0.4,5.9,2.2,7.1,5.3c0.5,1.3,1.2,1.7,2.3,1.9
		c0.6,0.2,1.3,0.2,1.9,0.3c2.9,0.7,5.8,1.4,8.4,2.9c1.8,1,3.7,1.9,5.6,2.9c-0.4-12.9-11.9-27-30.2-25.3
		c-15.8,1.4-24.4,15.1-24.4,25.2c3.9-2.1,7.9-4.2,12.2-5.3c1.5-0.4,2.9-0.6,4.4-0.9c0.6-0.1,1-0.3,1.3-1
		C123.1,143.7,125.4,141.7,129.1,141.2z M129.1,183.6c9.4,0.1,15.7-2.4,21-7.3c4.5-4.2,7.1-9.4,8.2-15.4c0.2-1.3,0-2.1-1.3-2.7
		c-1.1-0.5-2.2-1.1-3.2-1.7c-3.9-2.2-8.1-3.3-12.4-4.2c-0.8-0.2-0.8,0.4-1,0.8c-1.5,4.3-4.8,6.8-9.1,6.7c-4.5-0.1-7.7-1.7-9.2-6.7
		c-0.2-0.7-0.5-0.9-1.3-0.8c-5.5,0.8-10.5,2.9-15.2,5.7c-1.4,0.8-1.6,1.7-1.4,3.1C106.7,174.5,117.7,183.6,129.1,183.6z M138.6,150
		c0-4.1-3.2-7.4-7.4-7.4c-4.2,0-7.4,3.2-7.4,7.3c0,4,3.2,7.3,7.3,7.3C135.2,157.3,138.6,154,138.6,150z"/>
	<path class="st8" d="M129.1,183.6c-11.5,0-22.4-9.1-24.9-22.4c-0.3-1.4-0.1-2.3,1.4-3.1c4.8-2.7,9.8-4.8,15.2-5.7
		c0.8-0.1,1.1,0.1,1.3,0.8c1.6,5,4.7,6.6,9.2,6.7c4.3,0.1,7.6-2.4,9.1-6.7c0.2-0.5,0.2-1,1-0.8c4.3,0.8,8.5,1.9,12.4,4.2
		c1,0.6,2.1,1.2,3.2,1.7c1.3,0.6,1.5,1.4,1.3,2.7c-1.1,6-3.7,11.2-8.2,15.4C144.8,181.2,138.5,183.6,129.1,183.6z"/>
	<path class="st9" d="M129.1,141.2c-3.6,0.5-6,2.5-7.2,6c-0.2,0.6-0.7,0.9-1.3,1c-1.5,0.3-2.9,0.6-4.4,0.9
		c-4.4,1.1-8.3,3.2-12.2,5.3c-0.1-10.1,8.6-23.7,24.4-25.2c18.3-1.7,29.8,12.4,30.2,25.3c-1.9-1-3.8-1.9-5.6-2.9
		c-2.6-1.4-5.5-2.2-8.4-2.9c-0.6-0.1-1.3-0.2-1.9-0.3c-1.1-0.3-1.8-0.6-2.3-1.9c-1.2-3.2-3.6-5-7.1-5.3
		C132.5,140.5,130.1,140.5,129.1,141.2z M150.4,141.1c0-1.6-1.3-3-2.8-3c-1.6,0-3,1.3-3,3c0,1.6,1.3,2.9,2.9,2.9
		C149.1,144.1,150.4,142.7,150.4,141.1z M151.9,147c0.9-0.1,1.5-0.7,1.5-1.5c0-0.9-0.6-1.5-1.5-1.5c-0.8,0-1.4,0.6-1.4,1.5
		C150.5,146.4,151.1,146.9,151.9,147z"/>
	<path class="st8" d="M138.6,150c0,4.1-3.4,7.4-7.5,7.3c-4.1-0.1-7.3-3.3-7.3-7.3c0-4.1,3.2-7.3,7.4-7.3
		C135.4,142.6,138.7,145.8,138.6,150z M126.9,152c0.4,2.2,2.2,3.3,5.1,3.1c2-0.1,3.6-1.5,3.7-3.2C132.3,155,130.2,155,126.9,152z"/>
	<path class="st8" d="M129.1,141.2c1-0.7,3.4-0.7,4.2,0C131.9,140.9,130.5,141,129.1,141.2z"/>
	<path class="st8" d="M150.4,141.1c0,1.6-1.4,2.9-2.9,2.9c-1.6,0-2.9-1.3-2.9-2.9c0-1.7,1.4-3.1,3-3
		C149.2,138.2,150.4,139.5,150.4,141.1z"/>
	<path class="st8" d="M151.9,147c-0.9-0.1-1.5-0.6-1.5-1.5c0-0.9,0.6-1.4,1.4-1.5c0.9,0,1.5,0.6,1.5,1.5
		C153.4,146.4,152.9,146.9,151.9,147z"/>
	<path class="st7" d="M126.9,152c3.4,3,5.4,3,8.8-0.1c-0.1,1.7-1.7,3.1-3.7,3.2C129.1,155.3,127.3,154.2,126.9,152z"/>
</g>
<g>
	<path class="st7" d="M347.8,142.9c0,18.5-14.6,33-33.2,33c-18.6,0-33.1-14.5-33.1-33.1c0-18.5,14.6-33,33.2-33
		C333.3,109.8,347.8,124.3,347.8,142.9z M312.1,125.1c1.6-0.2,3.3-0.3,4.9,0c4,0.4,6.8,2.5,8.2,6.2c0.6,1.5,1.4,1.9,2.6,2.2
		c0.7,0.2,1.5,0.2,2.3,0.4c3.4,0.8,6.7,1.7,9.8,3.3c2.1,1.2,4.3,2.2,6.6,3.4c-0.5-15-13.9-31.4-35.2-29.5
		c-18.4,1.7-28.5,17.6-28.4,29.4c4.6-2.5,9.2-4.9,14.3-6.2c1.7-0.4,3.4-0.7,5.1-1.1c0.7-0.1,1.2-0.4,1.5-1.1
		C305.1,128.1,307.9,125.7,312.1,125.1z M312.1,174.6c11,0.1,18.3-2.8,24.5-8.5c5.2-4.9,8.3-10.9,9.6-17.9c0.3-1.5,0-2.5-1.5-3.2
		c-1.3-0.6-2.6-1.2-3.8-1.9c-4.5-2.6-9.4-3.9-14.5-4.8c-0.9-0.2-1,0.4-1.2,1c-1.8,5-5.6,7.9-10.7,7.8c-5.3-0.1-8.9-2-10.8-7.8
		c-0.3-0.8-0.6-1.1-1.5-0.9c-6.4,1-12.2,3.4-17.8,6.6c-1.6,0.9-1.9,2-1.6,3.6C286,163.9,298.8,174.6,312.1,174.6z M323.3,135.4
		c0-4.8-3.7-8.6-8.6-8.6c-4.8,0-8.6,3.7-8.6,8.5c0,4.7,3.7,8.5,8.5,8.6C319.3,144,323.2,140.1,323.3,135.4z"/>
	<path class="st8" d="M312.1,174.6c-13.4,0-26.1-10.6-29.1-26.2c-0.3-1.6-0.1-2.7,1.6-3.6c5.6-3.2,11.4-5.6,17.8-6.6
		c0.9-0.1,1.3,0.1,1.5,0.9c1.8,5.8,5.5,7.6,10.8,7.8c5,0.1,8.9-2.8,10.7-7.8c0.2-0.6,0.2-1.2,1.2-1c5,1,10,2.2,14.5,4.8
		c1.2,0.7,2.5,1.3,3.8,1.9c1.5,0.7,1.8,1.7,1.5,3.2c-1.3,7-4.4,13.1-9.6,17.9C330.5,171.8,323.1,174.6,312.1,174.6z"/>
	<path class="st9" d="M312.1,125.1c-4.2,0.6-7,3-8.4,7c-0.2,0.8-0.8,1-1.5,1.1c-1.7,0.4-3.4,0.7-5.1,1.1c-5.1,1.3-9.7,3.7-14.3,6.2
		c-0.1-11.8,10-27.7,28.4-29.4c21.3-2,34.7,14.5,35.2,29.5c-2.3-1.2-4.4-2.2-6.6-3.4c-3.1-1.7-6.4-2.6-9.8-3.3
		c-0.7-0.2-1.5-0.2-2.3-0.4c-1.2-0.3-2.1-0.8-2.6-2.2c-1.4-3.7-4.3-5.8-8.2-6.2C316.1,124.3,313.3,124.3,312.1,125.1z M337,125.1
		c0-1.9-1.5-3.4-3.3-3.5c-1.9-0.1-3.5,1.6-3.5,3.5c0,1.9,1.6,3.4,3.4,3.4C335.4,128.5,337,126.9,337,125.1z M338.8,131.9
		c1.1-0.1,1.7-0.8,1.7-1.7c0-1.1-0.7-1.8-1.8-1.7c-1,0-1.7,0.6-1.7,1.7C337,131.3,337.7,131.8,338.8,131.9z"/>
	<path class="st8" d="M323.3,135.4c0,4.7-4,8.6-8.7,8.5c-4.7-0.1-8.5-3.9-8.5-8.6c0-4.8,3.8-8.6,8.6-8.5
		C319.5,126.8,323.3,130.5,323.3,135.4z M309.5,137.7c0.5,2.6,2.6,3.9,5.9,3.6c2.4-0.2,4.2-1.8,4.3-3.7
		C315.9,141.2,313.5,141.3,309.5,137.7z"/>
	<path class="st8" d="M312.1,125.1c1.2-0.8,4-0.8,4.9,0C315.4,124.8,313.8,124.9,312.1,125.1z"/>
	<path class="st8" d="M337,125.1c0,1.9-1.6,3.4-3.4,3.4c-1.8,0-3.4-1.6-3.4-3.4c0-1.9,1.6-3.6,3.5-3.5
		C335.5,121.6,337,123.2,337,125.1z"/>
	<path class="st8" d="M338.8,131.9c-1-0.1-1.7-0.7-1.8-1.8c0-1.1,0.7-1.7,1.7-1.7c1.1-0.1,1.8,0.7,1.8,1.7
		C340.5,131.2,339.9,131.8,338.8,131.9z"/>
	<path class="st7" d="M309.5,137.7c3.9,3.5,6.3,3.5,10.3-0.1c-0.1,2-1.9,3.6-4.3,3.7C312.1,141.6,310,140.3,309.5,137.7z"/>
</g>
<g>
	<path class="st7" d="M462.7,192.7c0,25.2-19.9,45-45.2,44.9c-25.3,0-45.1-19.8-45.1-45.1c0-25.2,19.9-45,45.2-44.9
		C443,147.6,462.7,167.4,462.7,192.7z M414.1,168.5c2.2-0.2,4.5-0.4,6.7,0c5.4,0.6,9.3,3.5,11.2,8.5c0.7,2,1.9,2.6,3.6,3
		c1,0.2,2.1,0.3,3.1,0.5c4.6,1.1,9.1,2.3,13.3,4.6c2.9,1.6,5.9,3,8.9,4.6c-0.7-20.5-19-42.8-48-40.2c-25.1,2.3-38.8,24-38.7,40
		c6.2-3.4,12.5-6.7,19.4-8.4c2.3-0.6,4.6-1,7-1.5c0.9-0.2,1.7-0.5,2-1.6C404.5,172.5,408.3,169.3,414.1,168.5z M414.2,235.8
		c15,0.1,25-3.8,33.4-11.6c7.1-6.6,11.3-14.9,13.1-24.4c0.4-2.1,0-3.4-2.1-4.3c-1.7-0.8-3.5-1.7-5.1-2.6c-6.1-3.6-12.8-5.3-19.7-6.6
		c-1.3-0.3-1.3,0.6-1.6,1.3c-2.4,6.8-7.7,10.7-14.5,10.6c-7.2-0.2-12.2-2.7-14.7-10.6c-0.4-1.2-0.8-1.4-2.1-1.3
		c-8.7,1.3-16.6,4.6-24.2,9c-2.2,1.3-2.6,2.7-2.1,4.9C378.6,221.4,396,235.8,414.2,235.8z M429.3,182.4c0-6.6-5.1-11.7-11.7-11.7
		c-6.6,0-11.8,5.1-11.8,11.6c0,6.4,5.1,11.5,11.6,11.7C423.9,194.1,429.3,188.9,429.3,182.4z"/>
	<path class="st8" d="M414.2,235.8c-18.2,0-35.6-14.4-39.6-35.6c-0.4-2.2-0.1-3.6,2.1-4.9c7.6-4.4,15.5-7.7,24.2-9
		c1.3-0.2,1.7,0.1,2.1,1.3c2.5,7.9,7.5,10.4,14.7,10.6c6.9,0.2,12.1-3.8,14.5-10.6c0.3-0.8,0.3-1.6,1.6-1.3c6.9,1.3,13.6,3,19.7,6.6
		c1.7,1,3.4,1.8,5.1,2.6c2,0.9,2.4,2.3,2.1,4.3c-1.7,9.6-6,17.8-13.1,24.4C439.1,232,429.1,235.9,414.2,235.8z"/>
	<path class="st9" d="M414.1,168.5c-5.8,0.8-9.6,4-11.4,9.6c-0.3,1-1.1,1.4-2,1.6c-2.3,0.5-4.7,0.9-7,1.5c-6.9,1.7-13.2,5-19.4,8.4
		c-0.1-16,13.6-37.7,38.7-40c29-2.7,47.2,19.7,48,40.2c-3.1-1.6-6-3-8.9-4.6c-4.2-2.3-8.7-3.5-13.3-4.6c-1-0.2-2.1-0.3-3.1-0.5
		c-1.7-0.4-2.8-1-3.6-3c-1.9-5-5.8-7.9-11.2-8.5C419.5,167.3,415.7,167.3,414.1,168.5z M448,168.4c0-2.6-2-4.7-4.5-4.8
		c-2.6-0.1-4.8,2.1-4.7,4.8c0,2.5,2.1,4.7,4.6,4.7C445.8,173.1,448,170.9,448,168.4z M450.4,177.7c1.5-0.2,2.3-1,2.3-2.4
		c0-1.5-1-2.4-2.5-2.4c-1.3,0.1-2.3,0.9-2.3,2.3C448,176.9,449,177.6,450.4,177.7z"/>
	<path class="st8" d="M429.3,182.4c0,6.5-5.4,11.7-11.9,11.6c-6.5-0.1-11.6-5.3-11.6-11.7c0-6.6,5.2-11.7,11.8-11.6
		C424.2,170.7,429.3,175.9,429.3,182.4z M410.6,185.6c0.6,3.5,3.5,5.2,8.1,5c3.3-0.2,5.8-2.4,5.9-5.1
		C419.2,190.4,416,190.5,410.6,185.6z"/>
	<path class="st8" d="M414.1,168.5c1.6-1.1,5.4-1.1,6.7,0C418.6,168.1,416.3,168.2,414.1,168.5z"/>
	<path class="st8" d="M448,168.4c0,2.5-2.1,4.7-4.6,4.7c-2.5,0-4.6-2.1-4.6-4.7c0-2.6,2.2-4.9,4.7-4.8
		C446,163.7,448,165.8,448,168.4z"/>
	<path class="st8" d="M450.4,177.7c-1.4-0.2-2.4-0.9-2.4-2.4c0-1.5,0.9-2.3,2.3-2.3c1.5-0.1,2.5,0.9,2.5,2.4
		C452.7,176.7,451.9,177.6,450.4,177.7z"/>
	<path class="st7" d="M410.6,185.6c5.4,4.8,8.6,4.8,14-0.1c-0.1,2.7-2.6,4.9-5.9,5.1C414.1,190.9,411.2,189.2,410.6,185.6z"/>
</g>
<image style="overflow:visible;" width="1356" height="291" xlink:href="logo.png"  transform="matrix(0.3627 0 0 0.3627 4.3001 16.9661)">
</image>
<image style="overflow:visible;" width="500" height="500" xlink:href="team.png"  transform="matrix(0.3831 0 0 0.3831 286.5663 275.8364)">
</image>
<image style="overflow:visible;" width="900" height="514" xlink:href="teampokemon.png"  transform="matrix(0.2264 0 0 0.2264 107.3388 371.6172)">
</image>
<g>
	<path class="st10" d="M170.6,196.1c-0.2,0-0.3,0.2-0.3,0.3c-0.7,1.9-2,3.4-3.2,4.9c-1,1.3-2,2.6-2.9,4c-1.7,2.4-3.5,4.9-5.2,7.3
		c-1.1,1.6-2.1,3.3-2.9,5.1c-0.9,1.9-2.4,3.2-4.1,4.4c-2,1.4-4,2.9-5.9,4.5c-1.4,1.3-2.4,2.9-3.1,4.7c-1,2.3-1.5,4.6-1.7,7.1
		c-0.1,1.4-0.3,2.9-0.2,4.3c0.1,2.3,0.3,4.7,0.6,7c0.6,4.4,1.8,8.8,3.1,13c1,3.1,2.2,6.1,3.4,9.2c1,2.4,2,4.7,3.2,7
		c1.1,2.1,2.4,4.2,3.5,6.4c1,1.9,1.9,3.7,2.8,5.6c0.7,1.6,1.4,3.1,2,4.7c1.1,2.8,2,5.6,2.8,8.5c0.8,2.7,1.3,5.5,1.8,8.3
		c0.5,3.3,0.7,6.7,0.5,10c-0.3,5-1.4,9.8-3.8,14.2c-1.2,2.3-2.7,4.4-4.6,6.2c-3.8,3.8-8.4,6.5-13.6,7.9c-1.9,0.5-3.7,0.8-5.6,1
		c-1.3,0-2.6,0-4,0c-1.6-0.2-3.3-0.4-4.9-0.9c-3.3-0.9-6.4-2.2-9.3-4c-2.4-1.5-4.7-3.2-6.8-5c-1.8-1.6-3.6-3.2-5.2-4.9
		c-1.9-2.1-3.8-4.2-5.6-6.4c-2.8-3.5-5.4-7.1-8-10.8c-1.6-2.3-3-4.7-4.5-7.1c-1.5-2.3-3.2-4.4-5.1-6.2c-0.8-0.7-1.6-1.4-2.5-2
		c-0.4-0.3-0.4-0.1-0.4,0.2c0,1.1,0.1,2.3,0.3,3.4c0.4,3.1,1,6.1,1.6,9.1c0.6,2.9,1.3,5.8,2.1,8.7c0.6,2.1,1.3,4.2,2,6.3
		c0.3,0.8,0.6,1.6,0.7,2.5c0.1,0.8-0.1,1.5-0.7,2.1c-0.1,0.1-0.3,0.3-0.4,0.3c-0.9-0.1-1.4,0.6-2,1c-0.5,0.3-1.1,0.4-1.6,0.2
		c-0.6-0.2-1.1-0.3-1.7-0.3c-1.4-0.1-2.4-0.9-3.4-1.8c-1.5-1.6-2.2-3.4-2.6-5.5c-0.3-1.8-0.4-3.5-0.6-5.3c-0.2-1.8-0.4-3.7-0.6-5.5
		c-0.2-1.5-0.3-2.9-0.4-4.4c-0.1-1.1-0.2-2.1-0.4-3.2c0-0.4-0.2-0.4-0.5-0.4c-1.3,0.1-2.6,0.5-3.9,0.4c-2.5-0.1-4.8-0.8-6.8-2.4
		c-2.5-2-4-4.6-4.8-7.7c-0.8-2.9-1.1-5.8-1-8.7c0.1-2.4,0.3-4.7,0.9-7.1c0.4-1.6,0.8-3.1,1.2-4.7c0.3-1.1,0.3-2.3,0.5-3.5
		c0.3-2.1,0.8-4.2,1.4-6.3c0.3-0.9,0.6-1.8,1-2.6c0.2-0.4,0.3-0.7,0.2-1.2c-0.4-2.6-0.5-5.2,0.1-7.8c0.4-1.6,1.2-3,2.2-4.3
		c0.9-1.2,2.2-1.9,3.2-2.9c0.5-0.5,0.6-1,0.7-1.6c0.4-1.6,0.9-3.1,1.4-4.7c0.2-0.6,0.1-1-0.3-1.5c-1.8-2-3.5-4.1-4.7-6.5
		c-0.9-1.8-1.4-3.7-1.7-5.7c-0.3-2.6,0.1-5.1,1.3-7.4c0.5-1,1.2-2,2-2.8c1.1-1.2,2.3-2.2,3.6-3.2c0.2-0.1,0.3-0.3,0.4-0.6
		c0.9-3,2.3-5.8,3.8-8.5c0.5-0.9,1.2-1.8,1.9-2.7c1.2-1.4,2.7-1.3,3.9-0.5c1.2,0.8,2.4,1.7,3.4,2.6c1.3,1.2,2.6,2.5,3.6,3.9
		c0.2,0.2,0.4,0.3,0.6,0.3c3.4,0.2,6.6,1.2,9.5,2.9c1.8,1,3.4,2.2,4.8,3.6c1.3,1.3,2.4,2.8,3.2,4.4c0.2,0.5,0.5,0.8,1.1,1
		c1.7,0.4,3.3,1.2,4.9,2c1.4,0.8,2.8,1.5,4.1,2.6c0.6,0.5,1.1,1,1.5,1.5c0.5,0.6,0.4,1.2,0.2,1.8c-0.4,1-1.1,1.8-1.8,2.6
		c-1.1,1.4-2.4,2.6-3.8,3.8c-0.8,0.6-1.5,1.3-2.3,1.8c-0.6,0.3-0.8,0.8-0.9,1.5c-0.2,2.2-0.8,4.2-2,6.1c-1.6,2.6-3.9,4.1-6.8,4.9
		c-1.9,0.5-3.9,0.7-5.9,0.6c-1.5-0.1-3-0.2-4.5-0.4c-1.3-0.2-1.4-0.2-1.8,1.1c-0.3,1-0.6,1.9-0.1,3c0.6,1.4,0.8,3,0.8,4.6
		c0,0.4,0,0.9-0.1,1.3c-0.4,1,0.2,1.8,0.6,2.7c0.6,1.2,1.1,2.5,1.8,3.7c1.4,2.7,2.9,5.3,5.2,7.3c1.2,1,2.3,2.1,3.3,3.2
		c2.7,2.9,5.4,5.8,7.4,9.2c1.7,2.9,2.8,6,2.7,9.5c0,1,0.6,1.8,1.1,2.7c1.2,2.2,2.6,4.4,4,6.5c1.8,2.6,3.7,5.2,5.6,7.8
		c1.4,1.9,3,3.8,4.5,5.7c1,1.2,2.2,2.4,3.2,3.6c1.2,1.4,2.2,2.8,2.2,4.8c0,1-0.8,2-1.7,2.2c-0.3,0.1-0.4,0.1-0.5,0.4
		c-0.6,1.2-1.4,1.6-2.7,1.4c-0.2,0-0.4-0.1-0.6,0c-1.7,0.8-3.2,0.1-4.5-1c-2.6-2.1-4.4-4.9-6.1-7.7c-2.3-3.5-4.2-7.3-6-11
		c-1.2-2.4-2.4-4.9-3.4-7.4c-0.2-0.5-0.4-0.6-1-0.5c-3.3,0.6-6.3-0.3-9.1-2.2c-0.4-0.3-0.8-0.5-1.3-0.8c0.3,0.7,0.5,1.2,0.7,1.7
		c1.1,2.1,2.1,4.2,3.2,6.3c1.1,2.1,2.4,4.2,3.7,6.2c1.6,2.5,3.3,5,5.1,7.4c1.1,1.5,2.3,2.9,3.5,4.3c1.7,2,3.5,4,5.5,5.8
		c1.7,1.6,3.5,3.1,5.4,4.5c1.5,1.1,3,2,4.6,2.8c1.8,0.9,3.7,1.7,5.7,2.3c2.4,0.7,4.9,1.1,7.4,1c1.6-0.1,3.1-0.3,4.6-0.7
		c1.7-0.4,3.3-1.1,4.9-1.8c1.7-0.8,3.3-1.8,4.8-3.1c1-0.8,1.8-1.8,2.7-2.6c1.3-1.3,2.3-2.8,3.2-4.3c0.6-1.1,1.2-2.2,1.7-3.4
		c0.8-1.9,1.3-3.9,1.7-5.9c0.4-2.4,0.4-4.9,0.4-7.3c0-2.1-0.3-4.1-0.7-6.1c-0.4-2.3-0.9-4.6-1.6-6.8c-0.7-2.4-1.6-4.7-2.5-7
		c-1.9-4.6-4.4-9-6.6-13.4c-2.2-4.4-4.4-8.7-6.3-13.2c-1.5-3.6-2.8-7.2-3.8-11c-0.6-2.3-1.2-4.6-1.6-7c-0.3-1.5-0.3-3-0.6-4.4
		c-0.3-2-0.3-4.1-0.3-6.1c0-2.5,0.2-5,0.5-7.6c0.3-2.7,0.9-5.4,1.6-8c0.7-2.3,1.4-4.6,2.4-6.8c1.4-3.2,3.1-6.2,5-9.1
		c1.4-2,2.9-4,4.4-5.9c1.8-2.2,3.8-4.2,5.8-6.2c2.2-2.1,4.7-4,7.5-5.3c0.6-0.3,1.2-0.5,1.8-0.6c0.2,0,0.3,0,0.4-0.3
		c0.8,0,1.5,0,2.3,0c0.1,0.2,0.3,0.1,0.5,0.2c0.9,0.3,1.7,0.7,1.9,1.7C170.6,195.2,170.6,195.6,170.6,196.1z M81.1,336.2L81.1,336.2
		c0.4,0.6,1.1,1.1,1.8,1.3c0.7,0.3,1.4,0.1,1.9-0.6c-0.4-0.2-0.7-0.4-1.1-0.7c-1.1-1.1-2-2.4-2.5-4c-0.1-0.2-0.2-0.4,0-0.5
		c0.3-0.1,0.3,0.2,0.3,0.3c0.1,0.2,0.2,0.5,0.4,0.7c0.7,1.2,1.3,2.4,2.5,3.2c0.1,0.1,0.2,0.2,0.4,0.2c1.2,0.7,2.2,0.1,2.2-1.3
		c0-0.6-0.1-1.3-0.3-1.9c-3.4-9.8-5.8-19.8-6.4-30.3c0-0.3-0.1-0.4-0.4-0.4c-4.3,0.4-8.2-0.9-11.8-3.2c-1.8-1.1-3.3-2.6-4.8-4.2
		c-0.4-0.6-0.8-1.1-1.2-1.7c-0.1-0.1-0.3-0.3-0.1-0.4c0.2-0.2,0.3,0.1,0.4,0.2c0.3,0.4,0.6,0.7,1,1.1c4.4,5.4,10.1,8.2,17.2,7.6
		c2.4-0.2,4.5-1,6.6-2.2c0.2-0.1,0.5-0.2,0.3-0.5c-1-1.8-1.6-3.7-2-5.7c-0.4-2.5-0.5-5-0.2-7.5c0.1-0.9,0.2-1.8,0.5-2.6
		c0.1-0.2,0-0.5,0.3-0.4c0.2,0.1,0,0.3,0.1,0.5c0,0,0,0,0,0.1c-0.5,3-0.7,6-0.2,9c0.4,2.7,1.3,5.2,2.8,7.5c0.8,1.4,1.8,2.5,3,3.5
		c2.9,2.5,6.2,4.2,10.2,3.6c3.1-0.4,5.1-2.2,5.6-5.4c0.8-4.2-0.6-7.9-2.8-11.3c-0.2-0.3-0.3-0.6-0.5-0.9c-2.4-3.6-5.4-6.7-8.5-9.7
		c-1.1-1.1-2.3-2.1-3.2-3.3c-2.2-2.9-3.8-6.1-5.3-9.4c-0.1-0.2-0.1-0.4-0.3-0.5c-0.9,2.7-2.3,4.9-4,7.1c-1.1,1.5-2.8,2.7-2.9,4.8
		c0,0.7-0.3,0.8-0.9,0.3c-0.2-0.2-0.5-0.4-0.7-0.6c-0.2-0.2-0.5-0.3-0.8-0.1c-0.4,0.2-0.9,0.4-1.4,0.5c-0.4,0.1-0.7,0-0.7-0.4
		c-0.1-0.4-0.2-0.8-0.3-1.2c-0.1-1-0.1-1-1.1-1c-1-0.1-1.2-0.5-0.7-1.3c0.1-0.1,0.2-0.3,0.2-0.4c0.7-1.3,1.5-2.5,1.9-3.9
		c0.4-1.5,1-2.9,1.6-4.2c0.3-0.6,0.7-1.2,1.2-1.8c0.1-0.1,0.2-0.2,0.3-0.1c0.2,0.1,0,0.2,0,0.3c-1.2,1.9-2,4-2.7,6.2
		c-0.5,1.5-1.2,2.8-2,4.1c-0.2,0.3-0.2,0.5,0.2,0.5c0.1,0,0.2,0.1,0.4,0.1c1,0.1,1,0.1,1.2,1.1c0,0,0,0,0,0.1
		c0.3,1.8,0.3,1.8,1.9,0.9c0.3-0.2,0.6-0.1,0.8,0.1c0.3,0.3,0.6,0.6,1,0.9c0.1-0.4,0.2-0.7,0.2-1.1c0.1-0.6,0.2-1.1,0.7-1.5
		c1.8-2,3.5-4.1,4.7-6.5c1.9-3.5,2.4-7.1,0.9-10.9c-0.2-0.6-0.3-1.1-0.1-1.7c0.2-0.8,0.5-1.5,0.7-2.3c-1.1-0.3-2.1,0-3.1,0.2
		c-2.2,0.4-4.4,0.3-6.5-0.6c-3.4-1.4-5.4-4-6.7-7.3c-0.1-0.3-0.1-0.6-0.4-0.8c-0.4,1.4-0.8,2.7-1.2,4.1c-0.3,2-1.4,3.4-3,4.5
		c-0.1,0-0.1,0.1-0.2,0.2c-1.3,1.2-2.3,2.6-2.9,4.2c-1.1,3.1-0.9,6.3-0.3,9.5c0.4,2.2,1.5,4.2,1.3,6.6c0.4-0.1,0.7-0.2,1-0.3
		c0.4-0.2,0.7-0.1,1,0.3c0.3,0.4,0.6,0.7,0.9,1.1c0.4,0.4,0.7,0.4,1-0.2c0.2-0.3,0.3-0.6,0.4-0.9c0.1-0.4,0.3-0.5,0.7-0.5
		c0.6,0.1,1.2,0.2,1.9,0.3c0-0.2-0.1-0.3-0.1-0.5c-0.2-1-0.7-2-0.7-3.1c0-1.2,0-2.4-0.1-3.6c0-1.6,0.1-3.3-0.2-4.9
		c0-0.2-0.3-0.5,0.1-0.6c0.2,0,0.2,0.3,0.3,0.6c0.4,1.3,0.4,2.6,0.4,3.9c0,2.6-0.1,5.3,0.9,7.8c0,0.1,0,0.1,0,0.2
		c0.1,0.4-0.1,0.7-0.6,0.7c-0.4,0-0.7,0-1.1-0.1c-0.7-0.2-1.1-0.1-1.3,0.7c0,0.2-0.2,0.4-0.3,0.5c-0.5,0.7-1,0.7-1.6,0.2
		c-0.1-0.1-0.3-0.3-0.4-0.4c-0.2-0.3-0.4-0.7-0.7-0.9c-0.4-0.2-0.7,0.2-1.1,0.3c-0.7,0.2-1,0-0.9-0.7c0.2-1-0.1-1.9-0.3-2.9
		c-0.1-0.4-0.2-0.9-0.4-1.3c-0.1-0.4-0.2-0.8-0.4-1.4c-0.1,0.3-0.2,0.4-0.2,0.5c-1.7,4.1-2.4,8.4-2.6,12.8c-0.1,1.3,0,2.7,0.2,4
		c0,0.1,0.1,0.3-0.1,0.4c-0.2,0.1-0.2-0.2-0.3-0.3c-0.1-0.4-0.2-0.9-0.3-1.3c-0.1-0.4-0.1-0.9-0.2-1.3c-1.1,3.7-1.6,7.4-1.4,11.3
		c0.1,3,0.5,5.9,1.8,8.7c1.6,3.5,4,6,7.8,7c2,0.5,3.9,0.3,5.9,0c0.1,0,0.2,0,0.3,0c0.8-0.1,1.5-0.3,2.2-0.6c0.1,0,0.3-0.1,0.4,0.1
		c0.1,0.2-0.1,0.2-0.2,0.3c-0.2,0.1-0.5,0.3-0.7,0.3c-0.4,0.1-0.5,0.3-0.4,0.6c0.1,0.5,0.1,1,0.2,1.6c0.2,2.5,0.5,4.9,0.7,7.4
		c0.3,3.4,0.6,6.7,1.3,10c0.5,2.2,1.4,4.2,3.3,5.6c0.6,0.5,1.2,0.8,2.1,0.9c-0.4-0.5-0.8-1-1.2-1.4c-0.6-1-1.2-2-1.5-3.1
		c0-0.2-0.3-0.4,0-0.6c0.3-0.1,0.3,0.2,0.4,0.4c0.2,0.3,0.3,0.6,0.4,0.9c0.5,0.9,0.9,1.8,1.6,2.6C81,336.1,81.1,336.2,81.1,336.2z
		 M70.3,218.9c1.6-0.9,3.2-1.9,5-2.4c0.2,0.3-0.2,0.3-0.3,0.4c-1.1,0.6-2.1,1.2-3.2,1.8c-2.2,1.1-4.2,2.6-5.9,4.5
		c-3.4,4-4,8.5-2.2,13.3c0,0.1,0,0.3,0.2,0.4c0,0.1,0,0.2,0.1,0.3c1.2,3.1,3.2,5.7,5.6,8c-0.1-0.3-0.1-0.7-0.2-1
		c0.2-0.4,0.3-0.1,0.4,0.1c0.2,0.5,0.3,1,0.5,1.4c0,0.1,0.1,0.1,0.1,0.2l0,0c0.8,3,2.4,5.4,5.1,7.1c3.4,2.2,7,1.7,10.7,0.8
		c0.4-0.1,0.4-0.1,0.5,0.2c0,0.1,0.2,0.1,0.3,0.1c3.9,0.6,7.7,1,11.6,0c2.8-0.7,5.1-2.2,6.6-4.7c1.7-2.8,2.1-5.9,2.1-9.2
		c0.1-0.4-0.1-0.9,0.2-1.3c0.4,0.9,0.2,2,0.3,3.1c1-0.7,1.9-1.4,2.8-2.2c1.8-1.7,3.6-3.4,4.9-5.4c0.3-0.4,0.6-0.8,0.5-1.3
		c0.1-0.3-0.1-0.6-0.3-0.8c-0.4-0.5-0.9-1-1.5-1.4c-2.4-1.7-4.9-3-7.6-4.1c-0.4-0.2-0.8-0.4-1.2-0.4c0.6,1.3,1.1,2.5,1.2,3.9
		c-0.3-0.2-0.4-0.4-0.5-0.6c-0.5-1.3-1-2.6-1.6-3.9c-3.5-6.4-8.9-10.1-16.1-11.2c-1.2-0.2-2.5-0.1-3.7-0.1c-0.2,0-0.5,0.1-0.5-0.1
		c0-0.3,0.3-0.2,0.5-0.2c0.4-0.1,0.8-0.1,1.3-0.2c-0.2-0.3-0.4-0.5-0.5-0.7c-1.3-1.6-2.7-2.9-4.3-4.2c-0.8-0.7-1.7-1.3-2.7-1.8
		c-0.6-0.3-1.3-0.5-1.9,0.1c-0.6,0.3-1,0.9-1.4,1.5c-1.5,2.1-2.6,4.4-3.7,6.7c-0.5,1-0.9,2-1.2,3.1c0,0,0,0.1,0,0.1
		C70.2,218.9,70.2,218.9,70.3,218.9z M90,313.2L90,313.2c0,0.1,0,0.1,0.1,0.2c4.6,7.4,9.5,14.5,15.4,21c4.3,4.7,8.9,9,14.4,12.2
		c4.3,2.5,8.9,4.2,13.9,4.5c2.8,0.2,5.6-0.2,8.4-0.9c5.8-1.5,10.8-4.3,14.8-8.8c4.6-5.1,6.7-11.2,7.3-17.9
		c0.5-5.3-0.1-10.4-1.2-15.6c-1.7-7.7-4.6-15-8.3-22c-2-3.8-4.2-7.5-6-11.4c-4.2-9.3-7.3-18.9-8.1-29.1c0-0.3,0-0.6,0-0.9
		c-0.2-3.5,0-7.1,0.8-10.5c0.9-3.8,2.8-7,6.1-9.3c1.8-1.3,3.5-2.6,5.3-4c1.2-0.9,2.1-2,2.7-3.3c1-2.2,2.3-4.2,3.7-6.2
		c1.9-2.7,3.9-5.3,5.8-8c1.4-1.9,2.8-3.7,4.1-5.7c0.3-0.5,0.6-1,0.8-1.6c0.4-1.2,0.1-1.9-1.1-2.3c-1.3-0.5-2.5-0.3-3.8,0.1
		c-2.2,0.7-4.2,2-5.9,3.5c-5.5,4.6-10.1,10-13.9,16c-2.2,3.6-4,7.4-5.3,11.4c-1.6,4.6-2.5,9.4-2.8,14.3c-0.3,3.4-0.2,6.9,0.2,10.3
		c0.7,6.1,2.3,12.1,4.5,17.9c3,7.9,6.8,15.3,10.7,22.7c3.6,6.8,6.5,13.9,7.7,21.6c0.9,5.3,1,10.6-0.2,15.8
		c-1.7,7-5.6,12.6-11.7,16.4c-6.7,4.2-13.8,5-21.3,2.3c-4.8-1.7-9-4.6-12.8-8c-4.8-4.2-8.7-9.1-12.4-14.2c-2.5-3.5-4.8-7.2-6.9-11
		c-1.5-2.8-2.9-5.6-4.1-8.5c-0.2-0.4-0.4-0.8-0.8-1.2c-0.8-0.8-1.5-1.8-2.1-2.8c-0.2-0.4-0.4-0.4-0.7-0.2c-1.9,1.1-3.9,1.8-6,2.2
		c-0.2,0-0.5-0.1-0.6,0.3c0,0.3-0.1,0.7,0.3,0.9c2.1,1.3,3.9,3.1,5.5,5c1.2,1.4,2.2,3,3.3,4.5C90,313.1,90,313.1,90,313.2z
		 M124.1,334.9c1,0,1.5-0.3,1.8-1.2c-0.7-0.1-1.3-0.5-1.8-0.8c-0.1-0.1-0.2-0.2-0.4-0.3c-0.7-0.5-1.1-1.2-1.5-2
		c-0.1-0.1-0.1-0.2,0-0.3c0.1-0.1,0.2,0.1,0.2,0.1c0.2,0.3,0.4,0.6,0.6,0.8c0.8,0.8,1.5,1.7,2.7,1.9c1.7,0.4,2.5-1.1,2.2-2.4
		c-0.3-1.3-1-2.4-1.9-3.4c-3.4-3.7-6.5-7.6-9.4-11.6c-3.1-4.3-6.3-8.7-8.8-13.4c0,0-0.1-0.1-0.2-0.1c-0.3,2.6-1.8,4.4-4.2,5.4
		c-0.3,0.1-0.3,0.2-0.2,0.5c0.5,1.2,1.1,2.3,1.6,3.5c1.4,3.1,2.9,6.1,4.5,9.1c2.1,3.9,4.2,7.7,7,11.1c1.1,1.3,2.3,2.6,3.9,3.3
		c0.6,0.3,1.2,0.3,2,0.2c-1.8-1-3.1-2.3-3.7-4.1c0.4,0.3,0.7,0.8,1,1.1C121,333.4,122.2,334.7,124.1,334.9z"/>
	<path class="st11" d="M170.6,194.8c-0.3-1-1-1.4-1.9-1.7c-0.2-0.1-0.4,0-0.5-0.2c0.2,0,0.3,0,0.5,0c0.6,0,1.5-0.2,1.8,0.1
		C170.9,193.3,170.6,194.2,170.6,194.8z"/>
	<path class="st11" d="M72.2,311.1c-2,0.3-3.9,0.5-5.9,0c-3.8-1-6.2-3.5-7.8-7c-1.2-2.8-1.7-5.7-1.8-8.7c-0.1-3.8,0.4-7.6,1.4-11.3
		c0.1,0.4,0.1,0.9,0.2,1.3c0.1,0.4,0.2,0.9,0.3,1.3c0,0.1,0,0.3,0.3,0.3c0.2-0.1,0.1-0.3,0.1-0.4c-0.2-1.3-0.3-2.7-0.2-4
		c0.2-4.4,1-8.7,2.6-12.8c0-0.1,0.1-0.2,0.2-0.5c0.2,0.5,0.3,1,0.4,1.4c0.1,0.4,0.2,0.9,0.4,1.3c0.3,0.9,0.6,1.8,0.3,2.9
		c-0.1,0.7,0.2,0.9,0.9,0.7c0.4-0.1,0.7-0.5,1.1-0.3c0.3,0.2,0.5,0.6,0.7,0.9c0.1,0.1,0.2,0.3,0.4,0.4c0.6,0.6,1.1,0.5,1.6-0.2
		c0.1-0.2,0.3-0.4,0.3-0.5c0.2-0.8,0.6-0.9,1.3-0.7c0.3,0.1,0.7,0.1,1.1,0.1c0.5,0,0.6-0.2,0.6-0.7c0-0.1,0-0.1,0-0.2
		c-1-2.5-0.9-5.2-0.9-7.8c0-1.3,0-2.6-0.4-3.9c-0.1-0.2-0.1-0.6-0.3-0.6c-0.3,0.1-0.1,0.4-0.1,0.6c0.3,1.6,0.2,3.3,0.2,4.9
		c0,1.2,0,2.4,0.1,3.6c0,1.1,0.5,2,0.7,3.1c0,0.1,0.1,0.3,0.1,0.5c-0.7-0.1-1.3-0.2-1.9-0.3c-0.4-0.1-0.6,0-0.7,0.5
		c-0.1,0.3-0.2,0.6-0.4,0.9c-0.3,0.6-0.5,0.6-1,0.2c-0.3-0.3-0.6-0.7-0.9-1.1c-0.3-0.4-0.6-0.5-1-0.3c-0.3,0.1-0.6,0.2-1,0.3
		c0.3-2.3-0.9-4.4-1.3-6.6c-0.6-3.2-0.8-6.3,0.3-9.5c0.6-1.7,1.6-3.1,2.9-4.2c0.1-0.1,0.1-0.1,0.2-0.2c1.6-1.1,2.8-2.5,3-4.5
		c0.2,0,0.3,0.2,0.3,0.4c0.3,0.6,0.6,1.3,0.9,1.9c1.1,2,2.6,3.7,4.6,4.8c2.6,1.4,5.4,1.4,8.2,0.7c1.1-0.3,2.1-0.7,3.2-0.9
		c-0.2,0.6-0.1,1.1,0.1,1.7c1.5,3.8,1,7.4-0.9,10.9c-1.3,2.4-3,4.5-4.7,6.5c-0.4,0.5-0.5,1-0.7,1.5c-0.1,0.3-0.1,0.7-0.2,1.1
		c-0.4-0.2-0.7-0.6-1-0.9c-0.3-0.3-0.5-0.3-0.8-0.1c-1.6,0.8-1.6,0.8-1.9-0.9c0,0,0,0,0-0.1c-0.2-1-0.2-1-1.2-1.1
		c-0.1,0-0.2-0.1-0.4-0.1c-0.5,0-0.4-0.2-0.2-0.5c0.8-1.3,1.5-2.6,2-4.1c0.7-2.2,1.5-4.3,2.7-6.2c0.1-0.1,0.2-0.2,0-0.3
		c-0.1-0.1-0.2,0-0.3,0.1c-0.5,0.5-0.9,1.1-1.2,1.8c-0.7,1.4-1.3,2.8-1.6,4.2c-0.4,1.4-1.1,2.7-1.9,3.9c-0.1,0.1-0.2,0.3-0.2,0.4
		c-0.5,0.8-0.3,1.2,0.7,1.3c0.9,0.1,0.9,0.1,1.1,1c0.1,0.4,0.2,0.8,0.3,1.2c0.1,0.4,0.3,0.6,0.7,0.4c0.5-0.2,0.9-0.3,1.4-0.5
		c0.3-0.2,0.5-0.1,0.8,0.1c0.2,0.2,0.5,0.4,0.7,0.6c0.6,0.5,0.9,0.4,0.9-0.3c0.1-2.1,1.8-3.3,2.9-4.8c1.7-2.2,3.1-4.5,4-7.1
		c0.3,0.1,0.3,0.3,0.3,0.5c1.5,3.3,3.1,6.5,5.3,9.4c0.9,1.2,2.1,2.2,3.2,3.3c3.1,3,6.1,6.1,8.5,9.7c0.2,0.3,0.3,0.6,0.5,0.9
		c0.1,1.9-0.1,3.7-0.9,5.5c-1,2.6-2.8,4.5-5.3,5.6c-2.4,1-4.8,0.6-7.1-0.3c-0.9-0.3-1.7-1-2.7-1.2c-1.5-2.3-2.4-4.8-2.8-7.5
		c-0.5-3-0.3-6,0.2-9c0,0,0,0,0-0.1c0-0.2,0.2-0.4-0.1-0.5c-0.3-0.1-0.2,0.2-0.3,0.4c-0.3,0.8-0.4,1.7-0.5,2.6
		c-0.2,2.5-0.2,5,0.2,7.5c-2.1,0.2-4-0.3-6-0.9c-2.6-0.8-5.1-1.7-7.7-2.5c-2.7-0.8-5-0.3-6.9,2c-0.5,0.7-0.9,1.4-1.5,2.1
		c-0.3-0.4-0.6-0.7-1-1.1c-0.1-0.1-0.2-0.4-0.4-0.2c-0.2,0.2,0,0.3,0.1,0.4c0.4,0.6,0.8,1.2,1.2,1.7c-0.2,0.2-0.2,0.4-0.1,0.7
		c0.3,1.4,0.6,2.8,0.6,4.2c0,1.7,0.5,3.3,1.3,4.7C66.8,307.7,69.1,309.8,72.2,311.1z"/>
	<path class="st11" d="M63.7,236.5c-1.8-4.9-1.2-9.3,2.2-13.3c1.6-1.9,3.6-3.3,5.9-4.5c1.1-0.6,2.2-1.2,3.2-1.8
		c0.2-0.1,0.5-0.1,0.3-0.4c0.9-0.1,1.3-0.4,1.3-1.6c0-0.4-0.1-0.8-0.2-1.2c-0.2-1.3-0.4-2.7-0.3-4c0-0.8,0.3-1.5,0.4-2.2
		c0.6-0.6,1.3-0.3,1.9-0.1c1,0.4,1.9,1.1,2.7,1.8c1.6,1.3,3,2.7,4.3,4.2c0.2,0.2,0.3,0.4,0.5,0.7c-0.5,0.1-0.9,0.1-1.3,0.2
		c-0.2,0-0.5-0.1-0.5,0.2c0,0.2,0.3,0.1,0.5,0.1c1.2,0,2.5-0.1,3.7,0.1c7.2,1.1,12.6,4.7,16.1,11.2c0.7,1.2,1.1,2.6,1.6,3.9
		c0.1,0.2,0.1,0.5,0.5,0.6c-0.1-1.4-0.6-2.7-1.2-3.9c0.5,0,0.9,0.2,1.2,0.4c2.7,1.1,5.2,2.4,7.6,4.1c0.6,0.4,1.1,0.8,1.5,1.4
		c0.2,0.2,0.4,0.5,0.3,0.8c-2.6,1.5-5,3.2-7.4,4.8c-0.4,0.3-0.9,0.6-1.1,1.1c-0.3,0.4-0.1,0.9-0.2,1.3c-0.2,0.2-0.2,0.5-0.3,0.8
		c-0.3,1.3-0.6,2.6-0.9,3.8c-0.6,2.5-1.9,4.6-3.9,6.1c-1.7,1.3-3.8,1.7-5.9,1.9c-1.8,0.1-3.6-0.3-5.4-0.4c-2.6-0.2-5.2-0.5-7.8-0.2
		c-0.8,0.1-1.6,0-2.4,0.2c-1,0.2-1.9,0.1-2.9-0.3c-2.5-0.9-4.5-2.6-6.1-4.7c-0.4-0.5-0.6-1.2-1.2-1.5c0,0,0,0,0,0
		c0-0.1-0.1-0.1-0.1-0.2c-0.2-0.5-0.3-1-0.5-1.4c-0.1-0.2-0.1-0.5-0.4-0.1c-0.2,0-0.3-0.1-0.4-0.3c-1.5-1.8-2.9-3.6-4.1-5.6
		c-0.3-0.4-0.4-1-0.9-1.1c-0.1-0.1-0.1-0.2-0.1-0.3C64,236.7,63.8,236.6,63.7,236.5z M98,239.3c-0.7,0-1.4,0-2.2,0.3
		c-3,0.9-5,2.9-6.7,5.4c-0.2,0.3-0.2,0.5,0,0.7c0.9,1,2.1,1.6,3.3,2.1c2.6,1.1,5.4,1.1,8.1,1.4c0.4,0,0.5-0.2,0.7-0.5
		c0.7-1.4,1.1-2.8,1.3-4.4C102.8,241.2,101.1,239.3,98,239.3z M78.3,230.9c0-0.7-0.1-1.5-0.3-2.3c-0.8-3.4-3.7-4.8-6.8-3.2
		c-1.1,0.6-2,1.4-2.9,2.3c-0.8,0.8-0.8,1.6-0.3,2.6c0.7,1.4,1.7,2.7,2.8,3.9c1.2,1.4,2.5,2.7,4.2,3.7c0.5,0.3,0.8,0.3,1.2-0.2
		C77.7,235.6,78.3,233.4,78.3,230.9z M96.7,237.4c0-0.2-0.3-0.3-0.7-0.2c-1.7,0.4-3.3,1.1-4.7,2.2c-0.1,0-0.1,0.1-0.2,0.2
		c-0.1,0.1-0.1,0.2-0.1,0.2c0,0,0.2,0.1,0.2,0.1c0.1-0.1,0.3-0.1,0.4-0.2c1.5-0.8,3-1.6,4.7-1.9C96.5,237.7,96.6,237.6,96.7,237.4z
		 M80.5,230.3c0-1-0.2-2-0.6-2.9c-0.1-0.2-0.2-0.4-0.4-0.2c-0.2,0.1-0.1,0.3-0.1,0.4c0.1,0.2,0.2,0.5,0.3,0.7
		c0.4,1.4,0.4,2.9,0.1,4.3c0,0.2-0.2,0.4,0.1,0.4c0.2,0.1,0.2-0.2,0.3-0.3C80.4,232,80.6,231.2,80.5,230.3z"/>
	<path class="st12" d="M95,312.8c2.2,3.8,4.4,7.5,6.9,11c3.7,5.1,7.6,10,12.4,14.2c3.8,3.4,8,6.2,12.8,8c7.5,2.7,14.6,1.9,21.3-2.3
		c6.1-3.8,10-9.4,11.7-16.4c1.3-5.3,1.1-10.5,0.2-15.8c-1.3-7.7-4.1-14.7-7.7-21.6c-3.9-7.4-7.8-14.8-10.7-22.7
		c-2.2-5.8-3.8-11.7-4.5-17.9c-0.4-3.4-0.5-6.8-0.2-10.3c0.2,0.1,0.2,0.3,0.3,0.4c0.4,1.2,1,2.4,1.6,3.6c0.5,0.9,0.9,1.8,1.7,2.4
		c0.8,10.2,3.9,19.8,8.1,29.1c1.8,3.9,3.9,7.6,6,11.4c3.7,7,6.6,14.3,8.3,22c1.1,5.1,1.7,10.3,1.2,15.6c-0.6,6.7-2.8,12.8-7.3,17.9
		c-4,4.5-9,7.3-14.8,8.8c-2.8,0.7-5.5,1.1-8.4,0.9c-5-0.3-9.6-2-13.9-4.5c-5.5-3.2-10.2-7.5-14.4-12.2c-5.8-6.5-10.8-13.6-15.4-21
		c0-0.1,0-0.1-0.1-0.2c0.2,0,0.4-0.1,0.6,0c1,0.3,2.1,0.2,3.1,0.2C94.2,313.4,94.8,313.3,95,312.8z"/>
	<path class="st13" d="M140.7,245.4c-0.8-0.6-1.3-1.5-1.7-2.4c-0.6-1.2-1.2-2.3-1.6-3.6c-0.1-0.2-0.1-0.3-0.3-0.4
		c0.3-4.9,1.2-9.7,2.8-14.3c0.3-0.1,0.3-0.4,0.5-0.6c1.2-2.2,2.4-4.3,3.8-6.4c1.6-2.5,3.4-4.8,5.3-7.1c1.7-1.9,3.5-3.7,5.4-5.3
		c1.8-1.5,3.7-2.7,5.7-3.8c1.1-0.6,2.2-1.1,3.5-1.1c0.8,0,1.2,0.4,1.2,1.2c0,0.5-0.1,1-0.2,1.6c-1.9,2.7-3.9,5.3-5.8,8
		c-1.4,1.9-2.6,4-3.7,6.2c-0.6,1.3-1.6,2.4-2.7,3.3c-1.8,1.3-3.5,2.7-5.3,4c-3.3,2.3-5.1,5.5-6.1,9.3c-0.9,3.5-1,7-0.8,10.5
		C140.7,244.8,140.7,245.1,140.7,245.4z"/>
	<path class="st13" d="M72.2,311.1c-3.1-1.2-5.5-3.4-7.2-6.2c-0.8-1.4-1.4-3-1.3-4.7c0-1.5-0.3-2.8-0.6-4.2
		c-0.1-0.3-0.1-0.5,0.1-0.7c1.5,1.5,3,3,4.8,4.2c3.6,2.3,7.5,3.5,11.8,3.2c0.3,0,0.4,0,0.4,0.4c0.6,10.4,3.1,20.4,6.4,30.3
		c0.2,0.6,0.4,1.2,0.3,1.9c0,1.4-1,2-2.2,1.3c-0.1-0.1-0.2-0.2-0.4-0.2c0.6-0.2,0.7-0.7,0.8-1.2c0.1-0.9-0.1-1.7-0.4-2.5
		c-1.8-4.4-3-9-4.2-13.6c-0.3-1.3-0.6-2.7-0.9-4c-0.2-1-0.6-1.2-1.6-1.1c-0.9,0.1-1.9,0.3-2.8,0.1c-0.5-0.1-0.9-0.2-1.4-0.4
		c-0.1-0.5-0.1-1.1-0.2-1.6c-0.1-0.4,0.1-0.5,0.4-0.6c0.3-0.1,0.5-0.2,0.7-0.3c0.1-0.1,0.3-0.1,0.2-0.3c-0.1-0.2-0.2-0.1-0.4-0.1
		c-0.7,0.3-1.4,0.5-2.2,0.6C72.5,311.1,72.3,311.1,72.2,311.1z"/>
	<path class="st11" d="M125.9,333c-1.2-0.2-1.9-1-2.7-1.9c-0.2-0.2-0.4-0.5-0.6-0.8c-0.1-0.1-0.1-0.2-0.2-0.1
		c-0.2,0.1-0.1,0.2,0,0.3c0.4,0.7,0.8,1.4,1.5,2c0.1,0.1,0.2,0.2,0.4,0.3c0.1,0.7,0.2,1.4,0,2c-1.9-0.2-3.1-1.4-4.3-2.8
		c-0.3-0.4-0.6-0.8-1-1.1c0.7,1.8,1.9,3.1,3.7,4.1c-0.8,0.1-1.4,0.1-2-0.2c-1.6-0.7-2.8-2-3.9-3.3c-2.8-3.4-4.9-7.2-7-11.1
		c-1.6-3-3.1-6-4.5-9.1c0.6,0.1,1.2,0.1,1.8,0.2c1.3,0.2,2.5,0.1,3.6-0.7c0.3-0.2,0.6-0.3,1,0c0.9,0.8,1.6,1.7,2.2,2.7
		c1.7,3.4,3.9,6.5,6.6,9.2c0.9,0.9,1.8,1.6,2.6,2.5c1.3,1.4,2.5,3,3.4,4.8C126.9,331.4,126.8,332,125.9,333z"/>
	<path class="st13" d="M63.3,294.3c0.5-0.7,0.9-1.4,1.5-2.1c1.8-2.3,4.2-2.8,6.9-2c2.6,0.8,5.1,1.7,7.7,2.5c1.9,0.6,3.9,1,6,0.9
		c0.5,2,1,3.9,2,5.7c0.2,0.4-0.1,0.4-0.3,0.5c-2,1.2-4.2,2-6.6,2.2C73.4,302.5,67.8,299.7,63.3,294.3z"/>
	<path class="st11" d="M73.9,313.4c0.5,0.1,0.9,0.3,1.4,0.4c0.9,0.2,1.9,0,2.8-0.1c1-0.2,1.3,0.1,1.6,1.1c0.3,1.3,0.6,2.7,0.9,4
		c1.2,4.6,2.4,9.2,4.2,13.6c0.3,0.8,0.5,1.6,0.4,2.5c-0.1,0.5-0.2,1-0.8,1.2c-1.2-0.8-1.8-2-2.5-3.2c-0.1-0.2-0.2-0.5-0.4-0.7
		c-0.1-0.1-0.1-0.5-0.3-0.3c-0.2,0.1,0,0.3,0,0.5c0.5,1.5,1.4,2.8,2.5,4c-0.7,0.3-1.4,0.3-2.1,0c-0.2-0.1-0.4-0.1-0.6-0.1
		c0,0,0,0,0,0c0-0.1-0.1-0.1-0.1-0.2c-0.7-0.7-1.1-1.7-1.6-2.6c-0.1-0.3-0.3-0.6-0.4-0.9c-0.1-0.2-0.1-0.5-0.4-0.4
		c-0.3,0.1,0,0.4,0,0.6c0.3,1.1,0.9,2.1,1.5,3.1c-0.2,0.4-0.5,0.4-0.9,0.5c-1.9-1.4-2.8-3.4-3.3-5.6c-0.7-3.3-0.9-6.7-1.3-10
		C74.4,318.3,74.2,315.9,73.9,313.4z"/>
	<path class="st12" d="M165.1,203.3c0.1-0.5,0.2-1,0.2-1.6c0-0.9-0.3-1.2-1.2-1.2c-1.3,0-2.4,0.5-3.5,1.1c-2,1.1-3.9,2.3-5.7,3.8
		c-2,1.6-3.8,3.4-5.4,5.3c-1.9,2.2-3.7,4.6-5.3,7.1c-1.4,2.1-2.6,4.2-3.8,6.4c-0.1,0.2-0.2,0.5-0.5,0.6c1.3-4,3-7.8,5.3-11.4
		c3.8-6.1,8.4-11.4,13.9-16c1.8-1.5,3.7-2.8,5.9-3.5c1.3-0.4,2.5-0.6,3.8-0.1c1.2,0.4,1.5,1.1,1.1,2.3c-0.2,0.6-0.4,1.1-0.8,1.6
		C167.9,199.6,166.5,201.4,165.1,203.3z"/>
	<path class="st13" d="M88.5,300.1c1,0.2,1.7,0.8,2.7,1.2c2.4,0.9,4.7,1.3,7.1,0.3c2.6-1.1,4.3-3,5.3-5.6c0.7-1.8,1-3.6,0.9-5.5
		c2.2,3.5,3.5,7.1,2.8,11.3c-0.6,3.1-2.5,4.9-5.6,5.4c-4,0.6-7.3-1.1-10.2-3.6C90.3,302.7,89.3,301.5,88.5,300.1z"/>
	<path class="st13" d="M125.9,333c0.9-1,1-1.6,0.4-3c-0.8-1.8-2-3.4-3.4-4.8c-0.8-0.9-1.8-1.7-2.6-2.5c-2.7-2.7-4.9-5.8-6.6-9.2
		c-0.5-1-1.3-1.9-2.2-2.7c-0.3-0.3-0.6-0.2-1,0c-1.1,0.8-2.3,0.9-3.6,0.7c-0.6-0.1-1.2-0.1-1.8-0.2c-0.5-1.2-1.1-2.3-1.6-3.5
		c-0.1-0.3-0.1-0.3,0.2-0.5c2.4-1,3.8-2.8,4.2-5.4c0.1,0.1,0.2,0.1,0.2,0.1c2.5,4.8,5.6,9.1,8.8,13.4c2.9,4,6.1,8,9.4,11.6
		c0.9,1,1.6,2.1,1.9,3.4C128.4,331.9,127.6,333.5,125.9,333z"/>
	<path class="st13" d="M95,312.8c-0.3,0.5-0.8,0.6-1.3,0.6c-1,0-2.1,0.1-3.1-0.2c-0.2-0.1-0.4,0-0.6,0c0,0,0,0,0,0
		c0-0.1-0.1-0.1-0.1-0.2c-1.1-1.5-2.1-3-3.3-4.5c-1.6-1.9-3.4-3.6-5.5-5c-0.4-0.3-0.3-0.6-0.3-0.9c0-0.3,0.4-0.2,0.6-0.3
		c2.1-0.3,4.1-1.1,6-2.2c0.4-0.2,0.5-0.2,0.7,0.2c0.6,1,1.3,1.9,2.1,2.8c0.3,0.3,0.6,0.7,0.8,1.2C92.1,307.2,93.6,310,95,312.8z"/>
	<path class="st13" d="M70.3,245.9c0.6,0.4,0.8,1,1.2,1.5c1.6,2.1,3.6,3.8,6.1,4.7c0.9,0.3,1.9,0.5,2.9,0.3c0.8-0.1,1.6-0.1,2.4-0.2
		c2.6-0.3,5.2,0,7.8,0.2c1.8,0.1,3.6,0.6,5.4,0.4c2.1-0.2,4.2-0.6,5.9-1.9c2.1-1.6,3.3-3.6,3.9-6.1c0.3-1.3,0.6-2.6,0.9-3.8
		c0.1-0.3,0.1-0.5,0.3-0.8c0.1,3.2-0.4,6.3-2.1,9.2c-1.5,2.5-3.8,4-6.6,4.7c-3.9,1-7.8,0.6-11.6,0c-0.1,0-0.2,0-0.3-0.1
		c-0.1-0.4-0.1-0.3-0.5-0.2c-3.6,0.9-7.3,1.4-10.7-0.8C72.7,251.4,71.1,248.9,70.3,245.9z"/>
	<path class="st13" d="M85.7,257c-1.1,0.2-2.1,0.6-3.2,0.9c-2.8,0.7-5.6,0.7-8.2-0.7c-2-1.1-3.5-2.8-4.6-4.8
		c-0.3-0.6-0.6-1.3-0.9-1.9c-0.1-0.2-0.1-0.3-0.3-0.4c0.4-1.3,0.8-2.7,1.2-4.1c0.3,0.3,0.3,0.6,0.4,0.8c1.3,3.3,3.3,6,6.7,7.3
		c2.1,0.9,4.3,0.9,6.5,0.6c1-0.2,2.1-0.5,3.1-0.2C86.2,255.5,85.9,256.3,85.7,257z"/>
	<path class="st13" d="M76.4,207.5c0,0.8-0.4,1.5-0.4,2.2c-0.1,1.4,0.2,2.7,0.3,4c0,0.4,0.2,0.8,0.2,1.2c0,1.2-0.3,1.5-1.3,1.6
		c-1.8,0.5-3.4,1.5-5,2.4c0,0-0.1-0.1-0.1-0.1c0.3-1.1,0.7-2.1,1.2-3.1c1.1-2.3,2.2-4.6,3.7-6.7C75.4,208.4,75.8,207.8,76.4,207.5z"
		/>
	<path class="st13" d="M107.3,239c0.2-0.5,0.7-0.8,1.1-1.1c2.4-1.7,4.9-3.4,7.4-4.8c0.1,0.5-0.2,0.9-0.5,1.3
		c-1.4,2.1-3.1,3.8-4.9,5.4c-0.8,0.8-1.7,1.5-2.8,2.2C107.5,241,107.8,240,107.3,239z"/>
	<path class="st13" d="M63.9,237.2c0.5,0.2,0.7,0.7,0.9,1.1c1.2,2,2.7,3.8,4.1,5.6c0.1,0.1,0.2,0.2,0.4,0.3c0.1,0.3,0.1,0.7,0.2,1
		C67.2,242.9,65.2,240.3,63.9,237.2z"/>
	<path class="st13" d="M81.1,336.2c0.2-0.1,0.4,0,0.6,0.1c0.7,0.3,1.4,0.3,2.1,0c0.4,0.2,0.7,0.4,1.1,0.7c-0.5,0.7-1.2,0.9-1.9,0.6
		C82.2,337.3,81.5,336.9,81.1,336.2z"/>
	<path class="st13" d="M124.1,334.9c0.2-0.7,0.1-1.4,0-2c0.6,0.3,1.2,0.7,1.8,0.8C125.6,334.5,125.1,334.9,124.1,334.9z"/>
	<path class="st13" d="M79.2,336.4c0.3-0.1,0.7-0.1,0.9-0.5c0.4,0.4,0.7,0.9,1.2,1.4C80.5,337.2,79.8,336.9,79.2,336.4z"/>
	<path class="st13" d="M63.7,236.5c0.1,0.1,0.3,0.2,0.2,0.4C63.7,236.8,63.7,236.7,63.7,236.5z"/>
	<path class="st13" d="M70.3,218.9c0,0-0.1,0-0.1,0c0,0,0-0.1,0-0.1C70.2,218.8,70.2,218.9,70.3,218.9z"/>
	<path class="st13" d="M70.2,245.7c0,0.1,0.1,0.1,0.1,0.2C70.3,245.8,70.3,245.8,70.2,245.7z"/>
	<path class="st12" d="M89.9,313c0,0.1,0.1,0.1,0.1,0.2C90,313.1,90,313.1,89.9,313z"/>
	<path class="st13" d="M81,336c0,0.1,0.1,0.1,0.1,0.2C81.1,336.2,81,336.1,81,336z"/>
	<path class="st10" d="M98,239.3c3.1,0,4.8,1.9,4.5,5.1c-0.1,1.5-0.6,3-1.3,4.4c-0.1,0.3-0.3,0.5-0.7,0.5c-2.7-0.4-5.5-0.3-8.1-1.4
		c-1.2-0.5-2.4-1.1-3.3-2.1c-0.2-0.3-0.2-0.4,0-0.7c1.7-2.5,3.8-4.5,6.7-5.4C96.5,239.3,97.3,239.3,98,239.3z M98.7,241.7
		c0.2,2.5-0.8,4.6-2.5,6.5c1.4,0.2,2.7,0.3,4.1,0.5c0.2,0,0.3,0,0.4-0.2c0.5-0.9,1-1.9,1-3c0.5-1.6,0.3-3.1-0.6-4.5
		c-0.6-1-1.8-1.4-3.1-1.1C98.5,240.5,98.6,241.1,98.7,241.7z M89.6,245.5c0.2,0.2,0.5,0.4,0.7,0.6c1.4,1,3.1,1.5,4.8,1.9
		c0.6,0.2,0.8-0.3,1.1-0.6c1-1.1,1.7-2.5,2-4c0.1-0.6,0.1-1.2,0-2c-0.7,1.3-1.4,2.3-2.8,1.9c-1.2-0.3-1.4-1.3-1.2-2.5
		c-2,1.1-3.3,2.6-4.6,4.3C89.5,245.2,89.5,245.4,89.6,245.5z M95.9,242.9c0.1,0,0.2,0,0.4-0.1c0.7-0.2,1.6-1.5,1.6-2.2
		c0-0.3-0.2-0.8-0.5-0.8c-0.9,0-1.9,0.2-2.5,1.1c-0.3,0.4-0.3,0.8-0.1,1.3C95,242.6,95.3,242.8,95.9,242.9z"/>
	<path class="st10" d="M78.3,230.9c0,2.5-0.7,4.7-2.1,6.7c-0.4,0.5-0.7,0.5-1.2,0.2c-1.6-1-2.9-2.3-4.2-3.7c-1.1-1.2-2-2.4-2.8-3.9
		c-0.5-1-0.5-1.8,0.3-2.6c0.9-0.9,1.7-1.8,2.9-2.3c3.1-1.5,6.1-0.1,6.8,3.2C78.2,229.4,78.3,230.2,78.3,230.9z M70.7,226.3
		c-0.9,0.5-1.5,1.2-2.2,2c-0.3,0.4-0.4,0.7-0.2,1.2c0.5,1.3,1.3,2.4,2.2,3.5c0.8-2.2,2.1-4.1,3.8-5.6c0.6-0.4,1.3-0.7,2.1-0.8
		C75.1,225,72.6,224.9,70.7,226.3z M75.8,237.1c1.3-1.6,1.9-3.5,1.9-5.6c-1.1,0.6-1.7,0.6-2.4,0c-0.6-0.5-0.8-1.2-0.8-1.9
		c0-0.8,0.3-1.4,0.8-2c-0.3-0.1-0.4,0.1-0.6,0.2c-1.8,1.4-2.9,3.2-3.7,5.4c-0.1,0.2-0.1,0.4,0.1,0.6c1.2,1.3,2.4,2.6,3.9,3.5
		C75.4,237.4,75.7,237.5,75.8,237.1z M77.7,229.9c0-0.7-0.3-1.9-0.6-2.4c-0.1-0.2-0.1-0.4-0.4-0.3c-1.6,0.7-2.1,2.1-1.4,3.4
		c0.3,0.6,0.9,0.9,1.4,0.8C77.3,231.3,77.8,230.5,77.7,229.9z"/>
	<path class="st10" d="M96.7,237.4c-0.1,0.2-0.2,0.3-0.4,0.3c-1.7,0.2-3.2,1-4.7,1.9c-0.1,0.1-0.3,0.2-0.4,0.2c-0.1,0-0.2,0-0.2-0.1
		c-0.1-0.1,0-0.2,0.1-0.2c0.1-0.1,0.1-0.1,0.2-0.2c1.4-1,3-1.8,4.7-2.2C96.4,237.1,96.7,237.2,96.7,237.4z"/>
	<path class="st10" d="M80.5,230.3c0,0.9-0.1,1.6-0.4,2.4c-0.1,0.1,0,0.4-0.3,0.3c-0.2-0.1-0.1-0.3-0.1-0.4c0.3-1.5,0.3-2.9-0.1-4.3
		c-0.1-0.2-0.2-0.5-0.3-0.7c-0.1-0.2-0.2-0.3,0.1-0.4c0.2-0.1,0.3,0,0.4,0.2C80.4,228.3,80.6,229.3,80.5,230.3z"/>
	<path class="st14" d="M89.6,245.5c-0.1-0.1-0.1-0.3,0-0.4c1.2-1.7,2.6-3.2,4.6-4.3c-0.2,1.2,0,2.2,1.2,2.5c1.5,0.4,2.2-0.6,2.8-1.9
		c0.1,0.8,0.1,1.4,0,2c-0.3,1.5-0.9,2.9-2,4c-0.3,0.3-0.5,0.8-1.1,0.6c0-0.2,0-0.4,0-0.6c-0.1-0.9-0.8-1.8-1.5-1.8
		C92.2,245.5,90.9,245.5,89.6,245.5z"/>
	<path class="st11" d="M101.8,245.6c-0.1,1.1-0.6,2-1,3c-0.1,0.2-0.2,0.2-0.4,0.2c-1.3-0.2-2.7-0.3-4.1-0.5c1.7-1.9,2.7-4,2.5-6.5
		c0.3,0,0.6,0.2,0.9,0.4c0.8,0.6,1.3,1.5,1.7,2.4C101.4,244.8,101.4,245.3,101.8,245.6z"/>
	<path class="st13" d="M101.8,245.6c-0.3-0.3-0.3-0.7-0.5-1.1c-0.4-0.9-0.9-1.8-1.7-2.4c-0.3-0.2-0.5-0.3-0.9-0.4
		c-0.1-0.6-0.2-1.2-0.6-1.8c1.2-0.3,2.4,0.1,3.1,1.1C102,242.5,102.2,244,101.8,245.6z"/>
	<path class="st13" d="M89.6,245.5c1.3,0,2.6,0,3.9,0.1c0.7,0,1.4,0.9,1.5,1.8c0,0.2,0,0.4,0,0.6c-1.7-0.4-3.3-0.9-4.8-1.9
		C90.1,245.9,89.9,245.7,89.6,245.5z"/>
	<path class="st11" d="M95.9,242.9c-0.5,0-0.9-0.3-1.1-0.7c-0.2-0.4-0.2-0.9,0.1-1.3c0.6-0.8,1.5-1,2.5-1.1c0.3,0,0.5,0.4,0.5,0.8
		c0,0.7-0.9,1.9-1.6,2.2C96.1,242.8,95.9,242.9,95.9,242.9z"/>
	<path class="st14" d="M71.2,233.7c-0.2-0.2-0.2-0.4-0.1-0.6c0.7-2.1,1.8-4,3.7-5.4c0.1-0.1,0.3-0.3,0.6-0.2c-0.5,0.6-0.8,1.2-0.8,2
		c0,0.7,0.3,1.4,0.8,1.9c0.7,0.6,1.3,0.6,2.4,0c0,2.1-0.6,4-1.9,5.6c-0.2-0.9-0.5-1.7-1.1-2.5C73.9,233.4,72.6,233.1,71.2,233.7z"/>
	<path class="st11" d="M74.4,227.3c-1.8,1.5-3,3.4-3.8,5.6c-0.9-1.1-1.7-2.2-2.2-3.5c-0.2-0.5-0.1-0.8,0.2-1.2
		c0.6-0.8,1.3-1.5,2.2-2c0.7-0.1,1.4-0.2,2.1-0.1C73.7,226.3,74.2,226.7,74.4,227.3z"/>
	<path class="st11" d="M77.7,229.9c0,0.6-0.5,1.4-1,1.5c-0.5,0.1-1.1-0.1-1.4-0.8c-0.7-1.3-0.2-2.7,1.4-3.4c0.3-0.1,0.3,0.1,0.4,0.3
		C77.4,228,77.7,229.2,77.7,229.9z"/>
	<path class="st13" d="M71.2,233.7c1.4-0.6,2.6-0.3,3.5,0.9c0.5,0.7,0.9,1.6,1.1,2.5c-0.2,0.4-0.4,0.3-0.7,0.1
		C73.6,236.3,72.4,235,71.2,233.7z"/>
	<path class="st13" d="M74.4,227.3c-0.2-0.7-0.7-1.1-1.6-1.1c-0.7,0-1.4,0-2.1,0.1c1.9-1.5,4.4-1.4,5.8,0.2
		C75.7,226.6,75,226.9,74.4,227.3z"/>
</g>
</svg>
